<?xml version="1.0"?>
<svg xmlns:rdf="http://www.w3.org/1999/02/22-rdf-syntax-ns#" xmlns="http://www.w3.org/2000/svg" xmlns:cc="http://creativecommons.org/ns#" xmlns:dc="http://purl.org/dc/elements/1.1/" xmlns:svg="http://www.w3.org/2000/svg" id="svg2" viewBox="0 0 650 500" version="1.1">
  <g id="layer2" stroke="#000" stroke-width="1px" transform="translate(878.5 128.14)">
    <path id="path2833" d="m-297.5-8.1378 3-6-1-9v-8l3-8h3l2 1 5-4 4 1 3 6 2 9 2 3 4 1 2 4 4 1 2 3-6 6-8 7-1 4-4 5-5 5-2 8-6-9-3-8-3-12z" fill="#8200e7"/>
    <path id="path3607" d="m-301.5-4.1378 4-4 3 12 3 8 6 9-1 4-6 2-9 4-2-9 1-13 2-4-1-3v-6z" fill="#e79e00"/>
    <path id="path3609" d="m-308.5 31.862 7-1-2-9 1-13 2-4-1-3v-3l-8 1-8 3v5l2 5 1 8h2l2 9 2 2z" fill="#09e700"/>
    <path id="path3611" d="m-308.5 41.862v-10l7-1 15-6 3 1-1 4 3 3 4 3h3l-2-3h3l2 3-1 2-4 3 1 3h-4l-1-3h-3l-5-4-20 5z" fill="#0090e7"/>
    <path id="path3613" d="m-289.5 46.862-2-9 3-1 3 3v5l-4 2z" fill="#e70b00"/>
    <path id="path3615" d="m-305.5 56.862 12-8h4v-2l-2-9-17 4v4l3 11z" fill="#e6e700"/>
    <path id="path3617" d="m-369.5 58.862v-5l7-6-3-9 16-1 9-7v-7l-3-2 13-15 13-4v5l2 5 1 8h2l2 9 2 2v14l3 11h4l9-5 2 1-12 9-4-1v-3l-7-2-9-2-1-4-4-1h-6l-12 5h-4l-20 5z" fill="#e74a00"/>
    <path id="path3619" d="m-317.5 54.862-2 6 1 6 4 4-6 8 2 5 1-1 6 4 4-7 1-5v-5l-1-4-2-2 1-2 2-1v-3l-11-3z" fill="#e600e7"/>
    <path id="path3642" d="m-310.5 93.862-8-9v-1l-2-4 1 6 2 10h7v-2z" fill="#e70b00"/>
    <path id="path3644" d="m-359.5 88.862c2 0 39-10 39-10v2l3 15h6v5l-5 2-1-1-5-4-5-11 1 10 2 4h-5l-4-1v-2l1-2-1-3-5-1-3-2-2-3h-4l-1 2-4 1-5 6-2-7z" fill="#dce700"/>
    <path id="path3646" d="m-369.5 53.862-8 8 3 6 2 14 2 8 11-1 39-10 6-8-4-4-1-6 2-6-5-1-1-4-4-1h-6l-12 5h-4l-20 5v-5z" fill="#86ff7b"/>
    <path id="path3648" d="m-413.5 105.86-5-34 3-1 12-2 4 2h6l6-2 10-7 3 6 2 13-1 11-2 4-6 4v4l-3 1-1 4-1 3h-4l-3-3-2 2h-6l-1-1h-4l-2-3-5-1z" fill="#7bd3ff"/>
    <path id="path3650" d="m-388.5 111.86v4l3 4 9 6 6-1 3-2 5-3v-6l2-3 1-4 5-3 3-4 4-5-1-3 4-1 3 2 2-2-2-1-2-3h-4l-1 2-4 1-5 6-2-7-11 1-2-8-1 10-2 4-6 4v4l-3 1-2 7h-2z" fill="#b67bff"/>
    <path id="path3652" d="m-396.5 137.86c2 1 22-3 22-3l49-9 12-4-2-4h-5l-3-3 2-3-3-4 3-1-4-3-5-2-3-2v-2l1-2-1-3-5-1-1-1-2 2-3-2-4 1 1 3-7 9-5 3-1 4-2 3v6l-8 5-6 1-4-3-10 11-6 4z" fill="#ee87f3"/>
    <path id="path3654" d="m-315.5 103.86-1 5v5l3-4v-5l-2-1z" fill="#ee87f3"/>
    <path id="path3656" d="m-374.5 134.86 49-9 12-4 1 3-2 3-4 2v1h6l3 1 1 3-2 2-8 2 1 2 3 3v3l-5 2-2 2-6 6v4l-3 1-5 2h-2l-9-8-4-1-7 1-2 2h-3v-3l-2-2-3 1h-10l-5 2-6 4h-13v-3l4-4 5-2 7-6 3-1 6-4 2-2v-3z" fill="#f0f387"/>
    <path id="path3658" d="m-388.5 159.86v4l2 2h3l5 6 12 10 3 3 1 3 3 3 2 3h2l1-5 1-2h4l3-3v-3l3-3 3-2v-4l3-4 3-4h-3l-9-8-4-1-7 1-2 2h-3v-3l-2-2-3 1h-10l-5 2-6 4z" fill="#da8026"/>
    <path id="path3660" d="m-415.5 162.86 3-1 11-2h13v4l2 2h3l5 6 15 13 1 3 3 3 2 3-1 3-2 3v13h-6l-1 5h-9l-23 1-3-3-2-11 2-6-8-19-5-17z" fill="#b36ce6"/>
    <path id="path3662" d="m-429.5 227.86-3-8 13-2 17-2 3 3 23-1h9l1-5h6l4 13 9 12 1 6 10 14 2 3 1 20-2 4-6 1-3-1-5-6-5-1-2-7-2-1-1-4h-3l-3-5v-6l-1-2h-3l-2 1-1-3 2-3v-8l-8-5-7-6-6-1-8 8-4-1-4-7-7-1-3-1-12 2z" fill="#cfb823"/>
    <path id="path3664" d="m-443.5 166.86c2 0 16-2 16-2l12-2 5 17 8 19-2 6 2 11-30 4 3 8-5 3h-6l-2-25-1-39z" fill="#23bdcf"/>
    <path id="path3666" d="m-450.5 235.86 1-2h7l2-3-2-25-1-39-22 1-4 3v6l-6 9 1 15 3 4-1 3-4 4-2 8v4l15-1 5-1 1 6 2 1 2 5 3 2z" fill="#86eb94"/>
    <path id="path3668" d="m-504.5 241.86c1-1 2-7 2-7l-1-5 3-5-4-7-3-7v-13h21l12-1v4l3 4-1 3-4 4-2 8v4l15-1 5-1 1 6 2 1 2 5 3 2-2 4-1 1v2l7 2v3l-2 2-4-2-5-4v3l-3 1-5-1-4 2-4-1-4-5-2-2-3 2-6 1-5-2h-11z" fill="#b386eb"/>
    <path id="path3670" d="m-507.5 190.86v7h21l12-1-1-11 6-9v-6l4-3v-7l2-3-1-3-2-2 1-4h-8l-2 1h-14l-26 1v2l1 9 1 5 1 23h5v1z" fill="#dc852d"/>
    <path id="path3672" d="m-465.5 167.86v-7l2-3 2-5 1-4 2-2h13l7-2 14-2 16-2 9-1 3-2h1l21-3v3l-8 6-3 1-7 6-5 2-4 4v3l-11 2-3 1-28 4-22 1z" fill="#d32ddc"/>
    <path id="path3674" d="m-458.5 146.86 2-3v-5l1-2h5l5-8 1-2 9-1 6-1v-3h2l2 2 2-1 1-4 3-4v-2h4l2-2v-5l5 1 2 3h4l1 1h6l2-2 3 3h2v4l3 4 5 3-10 11-9 6-39 5-7 2h-13z" fill="#e2c550"/>
    <path id="path3676" d="m-445.5 128.86v-7l3-5 1-4-1-2v-4l1-3-1-1v-7l-1-3-1-6v-11h5l2-2 9-2h10l5 34v5l-2 2h-4v2l-3 4-1 4-2 1-2-2h-2v3l-6 1-9 1-1 2z" fill="#e250be"/>
    <path id="path3678" d="m-437.27 73.923 8.7672-2.0604h10l3-1 12-2v-6l6-7v-6l-2-4-2-8-2-2-2 2-6 7-2-1-1-3 4-6 1-1v-6l-2-2v-4l-3-1-4-1-5-3h-2l-3 2v4l-1 1-1 4-1 3h-4l-1 2v5l-2 4v7l2 4 2 3v10l-2 4-0.76724 4.0604z" fill="#e87597"/>
    <path id="path3680" d="m-452.5 28.862-1-4-1-3-5-4h-6l-1-1-8-1-4-5 9-4 9-8 2 1-3 4v3l6-1 5 4h7l3-3 9-3 1 3h3l6-1 1 4-1 3-8 1-3-1-5 3h-4l-2 3-3 1-6 9z" fill="#e87597"/>
    <path id="path3682" d="m-450.31 64.979c-0.19-0.117-27.19 1.883-27.19 1.883l-5-3-2-2v-7l-1-6-9-8-6-2-1-11-1-1 1-4 4-2v-8l3-2 6-2 3 1 7 1 4 5 8 1 1 1h6l5 4 2 10-2 2v4l4-4 3-4-1 5-1 7-2 4 1.194 19.116z" fill="#dd8a36"/>
    <path id="path3684" d="m-450.5 64.862 6 11v11l1 6 1 3v7l1 1-1 3v4l1 2-1 4-3 5v6l-5 9h-5l-1 2-1 1h-2l-3-9-2-3-5-1-2-3 1-2v-6l-4-1-1-3-8-7-1-9 1-3 3-4 1-3-2-1 1-2 5-3 3-5v-2l-5-6 27-2z" fill="#8d7ce9"/>
    <path id="path3686" d="m-515.5 150.86 25-1h15l2-1h8l-1 4 2 2 1 3 3-7v-2l2-2 2-3v-5l-1 1h-2l-3-9-2-3-5-1-2-3 1-2v-6l-4-1-1-3-8-7-1-9-3-1h-42l1 4 7 6 2 1-1 2-1 2 1 3 4 3v28c0 1 1.2155 7.1078 1 7z" fill="#fcb5d8"/>
    <path id="path3688" d="m-536.5 55.862v13l4 11 3 15h42l3 1 1-3 3-4 1-3-2-1 1-2 5-3 3-5v-2l-5-6-5-3-2-2v-8l-23 1-29 1z" fill="#b5fcbc"/>
    <path id="path3690" d="m-536.5 55.862v-25l-3-3-1-2 3-3v-6l-2-9-3-14v-13h21l9 6h3l2-1 6 1 2 3 3-1 3 2h5l2-1h3l2 2h8l-9 5-7 7-8 9v8l-4 2-1 4 1 1 1 11 6 2 9 8 1 5-21 1-31 1z" fill="#1a85f6"/>
    <path id="path3692" d="m-542.5-19.138-32-1-30-2-1 22-2 20 33 2 37 1v-6l-5-23v-13z" fill="#e61af6"/>
    <path id="path3694" d="m-607.5 19.862-1 12-3 28 54 3 5 3 9-1 5 3h2v-37l-3-3-1-2 3-3-37-1-33-2z" fill="#f0f61a"/>
    <path id="path3696" d="m-611.5 59.862-2 26 20 2v13l34 2 36 1-5-5-1-4-3-15-4-11v-1h-2l-5-3-9 1-5-3-24-1-30-2z" fill="#8780ee"/>
    <path id="path3698" d="m-593.5 100.86-2 41 37 2h42v-28l-4-3-1-3 2-4-3-2-38-1-33-2z" fill="#eed580"/>
    <path id="path3700" d="m-606.5 141.86v6l31 2 1 3-1 24 3 2h5l3 3 6 2 4-1 3 3 7 1 8-1 2 2 3-1 6-1h6l7 4-1-23-1-5-1-9v-2l-1-7h-42l-37-2h-11z" fill="#b480ee"/>
    <path id="path3702" d="m-606.5 147.86h-1l-4 61-42-3v3l19 19 3 12 16 10 3-2 5-8 3-1 5 1 5 1 7 6s3 8 3 8l5 9 7 8 1 6 6 10 8 4h7l2 3h3v-6l-2-13 3-8 3-6 6-5 6-1h6l2-3 4-4-1-5 3-2 2 4 3-1 6-3 1-2 1-5-1-5 3-5-4-7-3-7v-21h-5l-7-4h-6l-5 1-4 1-2-2-8 1-7-1-3-3-4 1-6-2-3-3h-5l-3-2 1-24-1-3-31-2z" fill="#fbfb73"/>
    <path id="path3704" d="m-672.5 134.86-9 76 9 1 2-5 3-1 14 3v-3l42 3 4-61 1-6-30-3-36-4z" fill="#ccfdae"/>
    <path id="path3706" d="m-664.5 80.862-8 54 66 7h11l2-41v-13l-20-2-23-2-28-3z" fill="#fb5af8"/>
    <path id="path3708" d="m-685.5 76.862 21 4 51 5 2-26 3-27-30-3-37-7-10 54z" fill="#bd1e71"/>
    <path id="path3710" d="m-604.5-22.138-1 23-2 19-1 13-30-3-37-7-1 5-3-1-3 1h-12l-2-5-2-1-2-13h-3l-1 2-2-3 1-5 4-8-6-4v-6l-4-2-1-8v-7l2-2 1-6 17 4 36 7 28 4 24 3z" fill="#d7f0a3"/>
    <path id="path3712" d="m-709.5-40.138-8-2-10 39 3 4-1 5-11 12 2 3 1 4-2 3-1 5-4 18 29 7 28 6 7-36-3-1-3 1h-12l-2-5-2-1-2-13h-3l-1 2-2-3 1-5 4-8-6-4v-6l-4-2-1-8v-7l2-2 1-6z" fill="#c4a3f0"/>
    <path id="path3714" d="m-711.5 57.862-14 67 53 10 8-54-21-4 2-13-28-6z" fill="#dd9e2f"/>
    <path id="path3716" d="m-672.5 134.86-9 76-24-4-40-24 1-2 4-1v-3l-2-1v-4l4-4v-4l5-4-2-5-2-5 2-3-1-12h4l2 3 4-1v-5l1-7 53 10z" fill="#1ca8a7"/>
    <path id="path3718" d="m-744.5 180.86-27-4-1-9-6-10-3-2v-3l-2-1h-6l-1-4-4-3-5-2-4-4v-3l2-2-2-5-8-19 1-2h2l1-3-5-4v-7l1-2 3 2 1-3-1-3-3 1-3-2v-7l-4-5v-10l2-2v-6l-2-2v-6l3-2 4-7 1-11 40 15-11 37 44 69 4 10-5 4v4l-4 4v4l2 1v3l-4 1z" fill="#e35ae4"/>
    <path id="path3720" d="m-781.5 80.862 44 69 2-3-1-12h4l2 3 4-1v-5l1-7 14-67-29-7-30-7-11 37z" fill="#8a7be9"/>
    <path id="path3722" d="m-810.5 28.862 40 15 30 7 5-23 2-3-1-4-2-3 11-12 1-5-3-4-6-1-11-4h-12l-10-1-4-2h-8l-3-2 1-2 1-3-3-3-1-2-6-1-3 10-10 21-8 12v10z" fill="#e9e77b"/>
    <path id="path3724" d="m-789.53-24.138 2.0302-6v-8l1-10v-5s2-2 3-2 10 9 10 9l2 4-3 4-1 5 4 1 2-6 3-3-1-7 2-4-1-6 15 6 34 10-10 39-6-1-11-4h-12l-10-1-4-2h-8l-3-2 2-5-3-3-1-2-6.0302-1z" fill="#dd6c31"/>
    <path id="path3726" d="m-799.5 190.86 1 5h3l2-3v-3l-3-2h-3v3z" fill="#dd3d31"/>
    <path id="path3728" d="m-802.5 185.86 3-1-1-1-2 1v1z" fill="none"/>
    <path id="path3730" d="m-810.5 182.86 2-1-1-2-2 1 1 2z" fill="none"/>
    <path id="path3732" d="m-817.66 178.88 1.1552-1.0172-2-1 0.84483 2.0172z" fill="none"/>
    <path id="path3734" d="m-712.81 271.77-0.69397-45.905-10-1-11-6h-7l-7 6-4-1-2 3 7 10-2 3-4-4h-5l-2 3 1 5 6 3 3 2-2 2h-5l-6 5-1 5 2 5 3 2-1 5 6 2h7v3l-6 4-8 5-8 3-9 3 21-3 6-4 6-5 4-2 2-4-2-3 5-2-1 5h5l1-3 3 1v-5h4l4 4 7.694-0.0948z" fill="#ddb231"/>
  </g>
  <metadata>
    <rdf:RDF>
      <cc:Work>
        <dc:format>image/svg+xml</dc:format>
        <dc:type rdf:resource="http://purl.org/dc/dcmitype/StillImage"/>
        <cc:license rdf:resource="http://creativecommons.org/licenses/publicdomain/"/>
        <dc:publisher>
          <cc:Agent rdf:about="http://openclipart.org/">
            <dc:title>Openclipart</dc:title>
          </cc:Agent>
        </dc:publisher>
        <dc:title>United States Map</dc:title>
        <dc:date>2010-03-25T03:55:19</dc:date>
        <dc:description>A colorful map of the United States.</dc:description>
        <dc:source>http://openclipart.org/detail/33871/united-states-map-by-bnielsen</dc:source>
        <dc:creator>
          <cc:Agent>
            <dc:title>bnielsen</dc:title>
          </cc:Agent>
        </dc:creator>
        <dc:subject>
          <rdf:Bag>
            <rdf:li>clip art</rdf:li>
            <rdf:li>clipart</rdf:li>
            <rdf:li>map</rdf:li>
            <rdf:li>united states</rdf:li>
            <rdf:li>usa</rdf:li>
          </rdf:Bag>
        </dc:subject>
      </cc:Work>
      <cc:License rdf:about="http://creativecommons.org/licenses/publicdomain/">
        <cc:permits rdf:resource="http://creativecommons.org/ns#Reproduction"/>
        <cc:permits rdf:resource="http://creativecommons.org/ns#Distribution"/>
        <cc:permits rdf:resource="http://creativecommons.org/ns#DerivativeWorks"/>
      </cc:License>
    </rdf:RDF>
  </metadata>
</svg>
